<svg width="192" height="192" viewBox="0 0 192 192" fill="none" xmlns="http://www.w3.org/2000/svg">
<g clip-path="url(#clip0_1_2)">
<path d="M22.424 0.0243426C22.224 0.240343 22.664 0.984343 23.864 2.40034C24.648 3.30434 25.144 4.26434 25.728 5.95234C26.168 7.23234 26.688 8.48034 26.888 8.72834C27.176 9.12034 27.208 9.02434 27.224 7.84834V6.54434L28.968 8.94434C31.616 12.6003 33.264 14.5443 34.368 15.3283C34.928 15.6963 35.272 16.0643 35.128 16.1123C34.736 16.2323 31.304 14.3443 29.704 13.1203C29.1833 12.685 28.6174 12.3068 28.016 11.9923C27.896 11.9923 27.496 11.6243 27.16 11.1763C26.6824 10.597 26.128 10.0856 25.512 9.65634C24.144 8.70434 22.696 7.33634 22.352 6.67234C22.104 6.17634 21.344 5.85634 21.344 6.24034C21.344 6.64034 23.304 9.25634 24.824 10.8803C29.488 15.8563 34.248 18.3363 46.976 22.3043C49.672 23.1443 52.056 23.9763 52.272 24.1683C52.52 24.3618 52.8218 24.4736 53.136 24.4883C53.4275 24.5066 53.7115 24.5885 53.968 24.7283C54.288 24.9283 54.256 24.9843 53.888 24.9843C53.592 24.9843 53.472 25.1283 53.52 25.4243C53.6 25.8643 54.8 26.2563 57.104 26.5763C58.136 26.7203 58.384 26.6723 58.384 26.3843C58.384 25.9843 57.664 25.7203 56.616 25.7203C56.216 25.7203 55.928 25.5923 55.928 25.4803C55.928 25.3203 56.168 25.2723 56.488 25.3203C56.784 25.4003 57.816 25.5603 58.744 25.7363C60.952 26.1043 61.568 26.3523 61.568 26.8163C61.568 27.3363 62.232 27.5523 62.672 27.1843C62.912 26.9683 63.04 26.9683 63.04 27.1603C63.04 27.3123 63.16 27.4323 63.28 27.4323C63.432 27.4323 63.528 27.2643 63.528 27.0643C63.528 26.6003 63.288 26.6003 67.408 27.2323C69.856 27.6003 70.768 27.8483 70.4 27.9763C69.616 28.2643 70.056 28.6563 71.16 28.6563C71.72 28.6563 72.12 28.7843 72.12 28.9283C72.12 29.1523 72.68 29.1683 74.072 29.0723C75.352 28.9763 76.088 29.0003 76.184 29.1763C76.288 29.3203 76.704 29.3923 77.144 29.3203C77.56 29.2403 78.712 29.3443 79.64 29.5203C82.096 29.9843 88.696 30.3523 103.456 30.8723C127.32 31.7043 144.712 33.4883 151.24 35.7923C154.136 36.8323 158.496 39.0323 159.312 39.8723C160.592 41.2163 160.976 42.3203 160.832 44.1363C160.748 44.7307 160.748 45.3339 160.832 45.9283C161.544 46.6403 163.112 45.2403 163.112 43.8883C163.112 43.6243 163.624 42.9603 164.288 42.3923C166.928 40.0723 167.328 38.7603 167.032 33.4403C166.84 29.8563 166.792 29.6163 165.192 24.3683C163.112 17.4963 162.624 16.4483 160.12 13.7923C157.176 10.7043 154.504 8.93634 150.84 7.68834C149.445 7.20339 148.059 6.69667 146.68 6.16834C144.688 5.38434 143.264 5.04034 140.376 4.62434C136.28 4.03234 127.472 3.61634 124.728 3.88834C123.744 3.98434 119.816 3.88834 115.528 3.61634C110.648 3.35234 107.656 3.24834 106.944 3.40034C106.164 3.53297 105.375 3.61315 104.584 3.64034C103.738 3.58549 102.904 3.86728 102.264 4.42434C101.256 5.16034 100.544 5.38434 97.744 5.84834C93.232 6.58434 90.312 7.16834 89.088 7.59234C88.128 7.93634 86.56 8.15234 84.128 8.30434C77.488 8.72034 73.712 9.06434 72.872 9.33634C72.312 9.50434 70.152 9.55234 66.552 9.48034C62.152 9.38434 61.032 9.43234 60.808 9.70434C60.584 9.94434 60.688 10.0243 61.272 10.0243C62.72 10.0243 75.648 11.0243 75.768 11.1443C75.896 11.2723 73.584 11.1683 66.992 10.7523C65.737 10.6334 64.4749 10.6066 63.216 10.6723C62.744 10.9763 59.264 10.9283 55.928 10.5843C51.9581 10.1928 48.0223 9.51094 44.152 8.54434C42.4603 8.1328 40.7368 7.86518 39 7.74434C36.376 7.61634 33.584 6.70434 29.632 4.72034C27.032 3.44034 26.744 3.38434 26.744 4.43234V5.24034L25.952 4.26434C25.4815 3.70002 25.0787 3.08247 24.752 2.42434C24.312 1.48834 22.672 -0.199657 22.424 0.0243426ZM26.08 25.5203C21.52 25.7363 17.328 29.2803 14.32 35.6243C12.528 39.4243 12.208 40.9043 12.088 45.9523C11.992 49.9283 12.04 50.7363 12.6 54.0483C13.8 60.9363 14.12 61.7443 16.648 64.2243C19.32 66.8723 25.968 70.5043 29.672 71.3443C30.952 71.6083 32.448 71.9523 32.984 72.0963C35.048 72.6163 37.864 72.8083 44.88 72.9043C51.624 73.0243 52.192 73.0083 53.096 72.5603C53.736 72.2403 55.088 72.0003 57.016 71.8563C58.64 71.7043 60.352 71.4883 60.824 71.3363C61.5498 71.1807 62.2897 71.1002 63.032 71.0963C63.792 71.0963 64.552 70.9443 64.696 70.8003C65.288 70.2083 68.08 69.6003 70.752 69.4483C72.248 69.3683 73.648 69.2323 73.896 69.1043C74.704 68.6643 74.312 68.4163 72.992 68.5683C72.4005 68.6587 71.7963 68.615 71.224 68.4403C70.824 68.2003 70.952 68.1763 71.88 68.1523C72.496 68.1523 73.696 68.0723 74.56 67.9763C75.88 67.8563 76.032 67.7763 75.664 67.5123C74.752 66.8483 75.544 66.6803 79.608 66.6803C83.264 66.6803 84.328 66.5043 83.24 66.0883C82.5758 65.9608 81.9003 65.9019 81.224 65.9123C80.32 65.8883 79.928 65.8163 80.32 65.7923C80.736 65.7443 81.624 65.5763 82.336 65.4483C83.024 65.3043 87.336 65.1283 91.904 65.0803C96.464 65.0323 100.336 64.9843 100.504 64.9603C100.728 64.9603 100.776 64.7843 100.68 64.4723C100.584 64.1203 100.632 63.9763 100.896 63.9763C101.096 63.9763 101.56 63.5843 101.936 63.1203C102.664 62.1603 102.864 62.2083 103.176 63.4643L103.4 64.2723L105.16 64.3523C106.568 64.4003 107.032 64.3203 107.496 63.9763C107.944 63.6822 108.443 63.4758 108.968 63.3683L109.88 63.1923L109.728 64.6163C109.584 65.7683 109.608 65.9923 109.904 65.8963C110.484 65.7225 111.071 65.573 111.664 65.4483L113.064 65.1843L112.528 64.4643C112.104 64.0206 111.568 63.6999 110.976 63.5363L110 63.2963L111.472 63.2403C112.272 63.2154 113.072 63.2154 113.872 63.2403C114.392 63.2643 114.784 63.1683 114.784 63.0243C114.784 62.8803 114.64 62.7523 114.488 62.7283C114.32 62.7043 113.776 62.6803 113.312 62.6483C112.709 62.5545 112.127 62.3569 111.592 62.0643C111.208 61.8035 110.775 61.6213 110.32 61.5283C110.08 61.5283 109.88 61.4003 109.88 61.2883C109.88 61.1123 110.616 61.0403 111.912 61.0883C113.896 61.1603 113.928 61.1603 113.992 61.8243C114.096 62.5843 114.096 62.5843 114.632 62.3603C114.722 62.3261 114.797 62.2602 114.843 62.1749C114.889 62.0895 114.902 61.9906 114.88 61.8963C114.736 61.5043 115.176 61.1763 115.544 61.4243C115.688 61.5043 116.28 61.6003 116.824 61.6483C118.144 61.7283 124.592 62.2403 126.264 62.4083C127.144 62.5043 127.536 62.6483 127.536 62.9043C127.536 63.3203 127.832 63.3363 128.2 62.9683C128.392 62.7763 129.352 62.8083 131.68 63.0243C134.528 63.2963 134.896 63.3683 134.896 63.7843C134.896 64.0723 135.064 64.2243 135.456 64.2483C135.752 64.2483 136.784 64.3443 137.712 64.4483C138.672 64.5443 139.576 64.5923 139.728 64.5203C139.896 64.4643 140.44 63.7363 140.928 62.9043C141.888 61.3043 142.696 60.2963 143.008 60.2963C143.136 60.2963 143.16 60.4723 143.088 60.6723C142.984 60.8643 143.064 61.0403 143.208 61.0403C143.384 61.0403 143.48 61.2323 143.432 61.4563C143.384 61.7443 143.6 61.9203 144.168 62.0403C145.072 62.2403 145.488 62.5043 144.88 62.5043C144.656 62.5043 144.456 62.6563 144.456 62.8243C144.456 63.0003 145.904 63.6163 148.016 64.2963C150.272 65.0563 151.568 65.6003 151.568 65.8163C151.568 66.0563 150.808 65.8963 148.704 65.1763C143.704 63.4643 141.52 63.0963 141.52 63.9523C141.52 64.3203 141.912 64.4963 143.8 64.9363C145.024 65.2323 146.2 65.4483 146.4 65.4483C146.783 65.5671 147.136 65.7693 147.432 66.0403C147.824 66.3843 149.784 67.1923 151.936 67.9043C154.12 68.6403 156.064 69.4243 156.456 69.7683C156.926 70.1464 157.446 70.4586 158 70.6963C159.544 71.3603 161.76 73.3443 163.424 75.5763C165.824 78.8163 165.8 78.6963 164.472 78.6963C163.864 78.6963 162.12 78.5203 160.6 78.3283C159.192 78.1421 157.778 78.0087 156.36 77.9283C154.64 77.8883 140.608 78.1523 135.36 78.3283L131.8 78.4483L131.24 77.2483C130.683 76.2774 129.997 75.3866 129.2 74.6003C127.808 73.2243 127.736 73.2003 127.416 73.6643C127.216 73.9363 126.48 74.9683 125.768 75.9203L124.472 77.7123L122.872 77.7683C121.992 77.7683 121.088 77.7923 120.872 77.7683C120.328 77.7203 120.304 78.0083 120.792 78.9203L121.136 79.6003L118.632 79.7763C111.816 80.2403 97.352 82.0323 92.488 83.0403C90.6932 83.3165 88.8799 83.4556 87.064 83.4563C83.384 83.5043 83.048 83.6003 80.712 84.9523C80.296 85.1683 79.976 85.2243 79.68 85.0723C79.416 84.9043 79.168 84.9523 79 85.1683C78.728 85.4883 77.848 85.6323 71.368 86.3203C69.944 86.4723 67.568 86.7923 66.048 87.0403C63.4 87.4723 63.248 87.4723 61.856 87.0403C60.384 86.5683 55.792 85.9523 51.872 85.6803L49.664 85.5123L48.368 86.6883C47.5373 87.4409 46.7719 88.2625 46.08 89.1443C45.344 90.1443 44.96 90.4723 44.48 90.4723C43.48 90.4723 34.528 91.8643 28.032 93.0403C21.016 94.3203 18.368 94.5603 16.304 94.1443C14.176 93.7043 14.144 93.6803 14.248 90.9843C14.344 88.7043 14.32 88.6323 13.728 88.3363C12.384 87.6483 11.088 88.0403 9.32 89.6323C8.87815 90.0156 8.3039 90.2109 7.72 90.1763C6.88437 90.2216 6.06719 90.4395 5.32 90.8163L3.872 91.4723L3.944 92.7523C4.00775 93.3369 3.94778 93.9284 3.768 94.4883C3.576 94.7843 3.528 96.0883 3.624 98.2483C3.72 100.864 3.648 101.824 3.304 103.096L2.888 104.672L4.064 106.336C6.424 109.648 8.088 112.176 8.088 112.44C8.088 112.592 8.824 113.376 9.752 114.184C13.8 117.744 15.52 118.704 19.496 119.536C23.712 120.44 24.4 120.392 27.024 118.992C28.1271 118.408 29.1718 117.719 30.144 116.936C30.784 116.344 32.592 115.384 36.08 113.84C41.496 111.44 42.184 111.168 42.184 111.488C42.184 111.584 42.528 114.896 42.944 118.792C43.8 126.992 44.064 134.84 43.704 140.872C43.408 145.608 43.192 146.264 39.856 152.552C34.68 162.28 28.472 171.704 23.792 176.928C22.952 177.888 21.68 179.528 20.968 180.608C19.616 182.64 17.12 185.368 14 188.16C12.944 189.12 12.256 189.92 12.336 190.12C12.408 190.32 13.168 190.712 14.024 191C14.864 191.32 15.672 191.664 15.816 191.792C16.208 192.184 16.696 192.032 18.512 191.056L20.272 190.072L20.992 190.568C21.848 191.128 23.392 191.176 24.696 190.688C25.208 190.488 26.24 190.272 27 190.224C28.52 190.072 29.504 189.664 31.096 188.432C31.6179 188.028 32.1977 187.704 32.816 187.472C33.528 187.328 39.68 181.096 42.976 177.168C44 175.968 46.576 173.248 48.736 171.136C51.752 168.144 53.096 167.016 54.816 165.984C57.296 164.52 59.256 162.728 59.496 161.672C59.6827 161.083 59.9293 160.515 60.232 159.976C60.992 158.68 61.856 155.344 61.632 154.512C61.4258 153.865 61.1551 153.241 60.824 152.648C60.184 151.52 60.136 151.128 60.016 147.984C59.792 142.464 58.912 139.576 56.112 135.232C54.496 132.728 54.104 131.848 53.096 128.608C51.432 123.04 50.936 117.808 51.776 113.72C52.168 111.68 52.36 111.416 54.008 110.456C54.864 109.944 55.992 109.136 56.536 108.64L57.536 107.712L62.296 107.168C64.92 106.848 67.864 106.464 68.792 106.264C69.752 106.064 71.856 105.624 73.48 105.304C75.12 104.968 77.456 104.376 78.656 103.984C79.856 103.568 81.552 103.072 82.432 102.88C84.152 102.48 90.008 101.92 90.208 102.12C90.28 102.2 90.352 105.704 90.328 109.92C90.328 116.544 90.256 118.336 89.688 123.216C88.8406 129.92 88.3758 136.667 88.296 143.424C88.072 152.592 88 153.008 86.504 154.088C85.424 154.872 84.32 154.728 81.064 153.288C78.5418 152.207 76.0056 151.159 73.456 150.144C70.7469 149.048 68.071 147.872 65.432 146.616C63.568 145.68 62.048 144.992 62.048 145.064C62.048 145.144 62.984 146.344 64.128 147.736C65.288 149.136 66.216 150.336 66.216 150.408C66.216 150.488 66 150.568 65.704 150.568C65.264 150.568 65.24 150.608 65.584 151.072C65.8 151.392 65.872 151.88 65.8 152.4C65.704 153.064 65.776 153.28 66.264 153.6C66.584 153.824 67.104 154.432 67.424 154.976C67.7222 155.503 68.1 155.981 68.544 156.392C68.9661 156.767 69.3253 157.208 69.608 157.696C69.848 158.16 70.68 159.024 71.472 159.616C72.1211 160.073 72.689 160.636 73.152 161.28C73.312 161.648 74.024 162.184 74.856 162.6C76.792 163.584 79.632 166.088 80.096 167.192C80.368 167.872 80.912 168.416 82.48 169.448C83.736 170.28 85.936 172.192 88.392 174.624C92.856 179.032 93.104 179.184 96.728 178.96C99.088 178.792 100.264 178.352 101.664 177.072C102.224 176.56 102.912 176.016 103.16 175.872C103.681 175.411 104.126 174.871 104.48 174.272C104.883 173.596 105.406 173 106.024 172.512C107.056 171.896 108.896 169.296 108.896 168.464C108.896 167.24 109.36 166.456 110.976 164.936C112.4 163.608 112.696 163.168 113.584 160.984C114.96 157.648 115.44 155.488 115.888 151.2C116.424 145.904 116.376 139.504 115.768 135.504C114.76 128.976 110.936 110.8 109.784 107.168C108.824 104.152 107.92 100.232 107.92 99.1043C107.92 98.8323 108.432 98.8083 110.44 98.9283C112.28 99.0563 113.72 99.0083 115.84 98.6883C118.336 98.3203 119.2 98.2883 121.84 98.5363C123.536 98.6883 124.984 98.8563 125.04 98.9363C125.232 99.0963 129.008 111.392 129.648 113.896C130.968 119.016 131 119.384 131.264 132.288C131.392 139.032 131.504 147.032 131.56 150.072C131.608 155.192 131.656 155.752 132.272 158.016C133.056 160.888 133.912 162.752 135.68 165.296C136.392 166.312 137.472 168.072 138.08 169.2C139.312 171.48 140.904 173.368 142.96 174.936C145.664 177.024 148.288 178.72 149.904 179.456C151.848 180.336 153.416 181.736 154.96 183.92C155.6 184.8 156.504 186 156.992 186.616C157.488 187.232 158.096 188.16 158.368 188.696C158.832 189.68 158.984 189.784 161.632 190.568C162.856 190.936 166.24 191.008 168.128 190.688C169.184 190.512 169.576 190.272 171.272 188.624C173.552 186.416 174.632 184.872 174.632 183.768C174.632 182.056 174.872 181.536 175.88 181.144C176.52 180.904 176.84 180.608 176.84 180.312C176.84 178.768 175.216 172.536 174.384 170.912C173.84 169.84 166.808 160.32 160.896 152.648C154.616 144.528 152.408 140.992 151.104 137.168C150.688 135.864 149.12 126.96 148.144 120.024C147.343 114.749 145.917 109.587 143.896 104.648C143.16 102.784 142.648 101.264 142.768 101.264C143.36 101.264 155.992 104.792 156.728 105.16C157.192 105.4 159.104 106.44 160.944 107.464C162.784 108.52 164.576 109.352 164.888 109.352C165.256 109.352 166.808 110.216 168.616 111.432L171.736 113.528L173.352 113.4C175.688 113.176 176.12 113.08 177.112 112.392C178.504 111.432 179.336 111.288 180.44 111.808C182.576 112.816 184.048 112.984 182.752 112.08C180.808 110.72 180.616 110.064 181.744 108.368C183.096 106.312 183.24 106.168 184.632 105.456C186.872 104.328 187.016 104.056 187.752 100.032C188.096 98.0723 188.552 96.1603 188.76 95.7683C189.32 94.5843 189.2 93.8323 188.24 92.9203C187.559 92.2 186.944 91.421 186.4 90.5923C185.64 89.4163 185.424 88.8483 185.424 87.9923C185.424 87.0323 185.32 86.8403 184.616 86.3923C184.062 86.0537 183.479 85.7671 182.872 85.5363C181.816 85.1683 180.176 83.4323 180.392 82.9443C180.487 82.7248 180.578 82.5034 180.664 82.2803C180.864 81.7843 178.872 80.7043 176.904 80.2403C174.952 79.7763 174.976 79.7763 175.32 79.3843C175.488 79.1603 175.48 78.4003 175.336 76.9843C174.6 70.2643 171.88 65.5443 167.344 63.1683C166.662 62.8547 166.02 62.4598 165.432 61.9923C164.968 61.2803 159.176 59.0723 155.992 58.4163C154.507 58.1037 153.034 57.7355 151.576 57.3123C149.971 56.8886 148.341 56.568 146.696 56.3523C143.04 56.0083 138.112 55.1763 136.488 54.6563C135.083 54.2685 133.66 53.9482 132.224 53.6963C130.68 53.4083 129.352 53.0883 129.28 52.9683C129.184 52.8243 128.592 52.8403 127.784 52.9923C126.848 53.1603 125.456 53.1603 123.248 52.9683C120.063 52.7625 116.871 52.6798 113.68 52.7203C108.288 52.7443 106.816 52.6723 104.064 52.2323C102.32 51.9433 100.559 51.7696 98.792 51.7123C96.096 51.6883 88.152 50.8803 89.568 50.7523C89.792 50.7523 90.528 50.6163 91.208 50.4643C92.336 50.2243 92.408 50.1683 92.192 49.6803C91.952 49.1603 91.824 49.1443 88.368 49.1683C85.424 49.1683 84.736 49.2403 84.52 49.5603C84.272 49.8803 84.024 49.9043 82.944 49.7043C81.792 49.4643 81.72 49.4083 82.088 49.1203C82.48 48.8243 82.488 48.7523 82.168 48.5283C81.9348 48.387 81.6718 48.3021 81.4 48.2803C81.08 48.2803 65.752 46.7603 59.376 46.0963C58.12 45.9523 57.024 45.8083 56.952 45.7043C56.872 45.6323 57 45.5843 57.216 45.5843C57.456 45.5843 57.632 45.4883 57.632 45.3603C57.632 44.9923 56.384 44.8963 54.672 45.1683C53.472 45.3363 52.832 45.3363 52.432 45.1443C51.968 44.9443 52.112 44.9203 53.176 45.0243C55.496 45.2643 54.52 44.7043 52.064 44.4083C50.744 44.2323 49.368 44.0643 49.024 44.0083C48.6401 43.9443 48.2679 43.8229 47.92 43.6483C47.68 43.4963 44.976 43.0323 41.936 42.6163C39.3802 42.2921 36.8433 41.8328 34.336 41.2403C30.36 40.1203 26.704 38.2803 24.6 36.3843L23.496 35.4083L23.888 34.4723C24.2033 33.6005 24.6919 32.8015 25.3243 32.1237C25.9568 31.4458 26.72 30.9031 27.568 30.5283C30.088 29.2963 31.248 29.1043 36.176 28.9523C40.656 28.8563 41.72 28.6643 41.2 28.0723C40.96 27.7283 37.424 27.1923 35.664 27.1923C34.56 27.1923 31.808 26.6483 29.28 25.9123C28.2423 25.6061 27.161 25.4736 26.08 25.5203ZM96.88 49.1203C96.6974 49.1159 96.515 49.132 96.336 49.1683C94.896 49.4083 94.056 49.7523 93.32 50.3683L92.584 50.9523L93.76 50.9763C94.2785 51.016 94.7994 50.9428 95.2869 50.7619C95.7744 50.581 96.2169 50.2966 96.584 49.9283C97.152 49.4083 97.256 49.1443 96.88 49.1203ZM143.088 56.7283C143.531 56.7454 143.968 56.8318 144.384 56.9843C144.959 57.1838 145.568 57.268 146.176 57.2323C146.416 57.1603 146.712 57.2083 146.816 57.3843C146.936 57.6003 146.576 57.6243 145.344 57.5043C144.264 57.3843 143.72 57.4003 143.72 57.5763C143.72 57.7203 144.016 57.8963 144.408 57.9763C146.2 58.3603 146.488 58.5603 144.952 58.4083C143.973 58.3125 142.991 58.2485 142.008 58.2163C140.728 58.2163 140.656 58.2403 140.584 58.8563C140.504 59.4163 140.344 59.5363 139.144 59.7843C137.496 60.1043 137.72 60.1283 136.488 59.5603C135.384 59.0243 132.952 58.4403 129.936 57.9683C128.816 57.8003 128.256 57.6483 128.64 57.6243C129.056 57.6243 131.312 57.8723 133.672 58.2163C138.032 58.8323 139.264 58.9523 138.992 58.6803C137.585 58.2896 136.159 57.9692 134.72 57.7203L130.6 56.9203L133 56.8883C135.112 56.8643 135.48 56.9443 136.12 57.4083C136.664 57.8003 136.928 57.8723 137.128 57.6803C137.296 57.5043 138.032 57.4563 139.184 57.5203C140.728 57.6483 141.144 57.6003 142.008 57.1363C142.336 56.9296 142.704 56.7854 143.088 56.7283ZM108.312 60.8323C108.432 60.8323 108.544 60.8483 108.6 60.9123C108.704 60.9923 108.6 61.1523 108.408 61.2803C107.944 61.5763 107.744 61.5763 107.552 61.3043C107.44 61.1043 107.952 60.8483 108.312 60.8323ZM148.208 61.5523C148.256 61.5363 148.336 61.6323 148.48 61.8483C148.678 62.0834 148.959 62.2326 149.264 62.2643C149.664 62.2643 149.688 62.3123 149.368 62.5043C149.22 62.6077 149.055 62.6836 148.88 62.7283C148.384 62.6803 148.144 62.3843 148.144 61.9443C148.152 61.7043 148.16 61.5683 148.208 61.5523ZM116.6 62.9923C116.104 62.9923 115.768 63.4163 115.768 64.0003C115.768 64.1283 116.328 64.2243 117.016 64.2243C118.192 64.2243 118.24 64.2003 117.944 63.8083C117.464 63.1683 117.16 62.9923 116.6 62.9923ZM166.12 77.6403C166.288 77.5683 166.712 77.7363 167.048 77.9843C167.592 78.4003 167.592 78.4483 167.152 78.4243C166.464 78.4243 165.688 77.8163 166.12 77.6403Z" fill="white"/>
</g>
<defs>
<clipPath id="clip0_1_2">
<rect width="192" height="192" fill="white"/>
</clipPath>
</defs>
</svg>
