<?xml version="1.0" encoding="iso-8859-1"?>
<!-- Uploaded to: SVG Repo, www.svgrepo.com, Generator: SVG Repo Mixer Tools -->
<svg height="800px" width="800px" version="1.1" id="Layer_1" xmlns="http://www.w3.org/2000/svg" xmlns:xlink="http://www.w3.org/1999/xlink" 
	 viewBox="0 0 512 512" xml:space="preserve">
<circle style="fill:#FFDF55;" cx="256" cy="256" r="256"/>
<path style="fill:#FFCE00;" d="M256,0c-11.317,0-22.461,0.744-33.391,2.167C348.216,18.53,445.217,125.933,445.217,256
	s-97.002,237.47-222.609,253.833C233.539,511.256,244.683,512,256,512c141.385,0,256-114.616,256-256S397.385,0,256,0z"/>
<g>
	<path style="fill:#FFFFFF;" d="M426.823,322.01c-43.943-10.544-62.14-40.426-69.077-57.299c-1.832-4.457,0.087-9.606,4.366-11.721
		l22.864-11.306c6.025-2.98,10.435-8.422,12.101-14.934c1.665-6.512,0.41-13.404-3.445-18.911
		c-5.664-8.091-15.837-11.666-25.321-8.898l-16.688,4.875v-44.428c0-0.148-0.003-0.297-0.012-0.444
		c-4.174-78.249-73.736-88.183-95.086-89.361c-0.199-0.011-0.857-0.011-0.981-0.004c-21.277,1.159-90.982,11.03-95.161,89.365
		c-0.008,0.148-0.012,0.296-0.012,0.444v44.428l-16.688-4.875c-9.481-2.769-19.656,0.807-25.321,8.899
		c-3.854,5.506-5.11,12.398-3.445,18.911c1.666,6.511,6.076,11.955,12.102,14.935l22.864,11.306
		c4.281,2.116,6.199,7.265,4.366,11.721c-6.935,16.874-25.134,46.757-69.077,57.299c-4.25,1.02-6.994,5.146-6.291,9.459
		c0.199,1.222,5.161,28.605,47.509,30.651c1.975,7.413,5.04,17.243,8.282,21.297c2.223,2.778,5.961,3.847,9.314,2.651
		c0.201-0.07,20.372-7.12,38.79-3.637c0.218,0.043,21.944,4.478,35.375,17.697c6.489,6.387,14.195,10.824,22.284,12.831
		c4.996,1.241,10.231,1.87,15.56,1.87s10.565-0.629,15.559-1.869c8.091-2.008,15.795-6.446,22.285-12.832
		c13.334-13.125,35.169-17.656,35.3-17.683c18.363-3.472,38.673,3.556,38.863,3.623c3.351,1.192,7.091,0.127,9.314-2.651
		c3.242-4.054,6.308-13.884,8.282-21.297c42.341-2.049,47.31-29.429,47.509-30.651C433.816,327.156,431.073,323.03,426.823,322.01z
		 M379.175,345.535c-3.9-0.043-7.346,2.627-8.24,6.442c-1.379,5.882-3.161,12.041-4.622,16.227
		c-8.943-2.252-24.809-5.087-40.345-2.149c-1.09,0.216-26.883,5.49-43.834,22.174c-4.36,4.29-9.406,7.238-14.596,8.527
		c-3.681,0.914-7.563,1.377-11.538,1.377c-3.975,0-7.857-0.464-11.538-1.378c-5.189-1.288-10.237-4.236-14.595-8.527
		c-16.952-16.685-42.745-21.958-43.908-22.189c-15.479-2.928-31.322-0.092-40.261,2.16c-1.475-4.205-3.253-10.351-4.631-16.226
		c-0.895-3.813-4.293-6.536-8.24-6.441c-19.567,0.283-29.001-5.334-33.515-10.167c43.826-14.201,62.802-45.865,70.384-64.311
		c5.152-12.535-0.298-27.046-12.408-33.035l-22.863-11.305c-2.268-1.122-3.059-3.054-3.327-4.106
		c-0.269-1.052-0.504-3.127,0.947-5.198c1.557-2.226,4.354-3.207,6.962-2.446l27.376,7.998c2.522,0.736,5.245,0.243,7.348-1.333
		c2.104-1.577,3.34-4.051,3.34-6.679v-55.337c3.434-62.084,55.948-71.996,78.929-73.337c22.974,1.341,75.498,11.25,78.931,73.337
		v55.337c0,2.628,1.238,5.102,3.34,6.679c2.103,1.576,4.825,2.068,7.348,1.333l27.375-7.998c2.607-0.762,5.405,0.223,6.962,2.446
		c1.45,2.072,1.215,4.147,0.947,5.199c-0.269,1.052-1.06,2.985-3.327,4.106l-22.864,11.306c-12.11,5.988-17.56,20.499-12.408,33.035
		c7.583,18.449,26.562,50.117,70.401,64.316C408.203,340.175,398.738,345.801,379.175,345.535z"/>
	<path style="fill:#FFFFFF;" d="M256,407.039c-4.697,0-9.301-0.552-13.684-1.641c-6.736-1.672-13.202-5.415-18.696-10.822
		c-15.086-14.849-39.151-19.752-39.393-19.8c-3.768-0.712-7.946-1.081-12.343-1.081c-9.543,0-18.325,1.709-24.013,3.141
		l-4.378,1.103c-1.988,0.501-4.029-0.597-4.707-2.531l-1.494-4.26c-1.594-4.547-3.419-10.908-4.796-16.705
		c-0.378,0.004-0.732,0.006-1.081,0.006c-21.879,0-33.075-7.071-38.615-13.005l-6.439-6.896c-1.45-1.554-0.795-4.088,1.227-4.744
		l8.976-2.908c40.702-13.19,58.129-42.768,64.894-59.225c3.381-8.227-0.186-17.744-8.12-21.668l-22.864-11.305
		c-3.988-1.972-6.905-5.574-8.007-9.883c-1.102-4.307-0.272-8.868,2.278-12.511c2.848-4.069,7.514-6.499,12.481-6.499
		c1.444,0,2.881,0.206,4.269,0.61l14.03,4.098c6.318,1.845,12.639-2.893,12.639-9.474v-41.675l0.013-0.246
		c1.655-29.921,13.855-52.287,36.261-66.479c17.648-11.177,37.497-14.466,51.04-15.256l0.519-0.03l0.519,0.03
		c13.542,0.79,33.39,4.079,51.039,15.255c22.409,14.191,34.61,36.558,36.265,66.48l0.013,0.246v41.675
		c0,6.583,6.32,11.32,12.639,9.474l14.024-4.097c1.389-0.406,2.827-0.612,4.273-0.612c4.965,0,9.631,2.43,12.479,6.498
		c3.189,4.556,3.689,10.541,1.089,15.676c-1.529,3.022-4.113,5.382-7.148,6.883l-22.531,11.142
		c-7.934,3.923-11.501,13.441-8.12,21.669c6.766,16.46,24.196,46.043,64.908,59.229l8.999,2.914
		c2.025,0.656,2.679,3.196,1.223,4.748l-6.47,6.9c-5.554,5.924-16.778,12.985-38.701,12.985c-0.331,0-0.663-0.001-0.998-0.004
		c-1.369,5.776-3.19,12.134-4.783,16.696l-1.489,4.267c-0.676,1.937-2.719,3.038-4.708,2.537l-4.383-1.103
		c-5.684-1.431-14.466-3.137-24.025-3.137c-4.421,0-8.624,0.371-12.491,1.102c-0.161,0.032-24.17,4.935-39.243,19.771
		c-5.495,5.407-11.96,9.15-18.697,10.823C265.299,406.487,260.696,407.039,256,407.039z"/>
</g>
</svg>