<svg width="192" height="192" viewBox="0 0 192 192" fill="none" xmlns="http://www.w3.org/2000/svg">
<g clip-path="url(#clip0_1_2)">
<mask id="mask0_1_2" style="mask-type:luminance" maskUnits="userSpaceOnUse" x="0" y="0" width="192" height="192">
<path d="M192 0H0V192H192V0Z" fill="white"/>
</mask>
<g mask="url(#mask0_1_2)">
<g clip-path="url(#clip1_1_2)">
<path d="M95.8339 0C45.3153 0 3.93023 38.8539 0 88.2266L51.5427 109.483C55.9089 106.501 61.1884 104.764 66.8623 104.764C67.3744 104.764 67.8795 104.778 68.3777 104.805L91.3017 71.6619V71.1968C91.3017 51.2535 107.569 35.0239 127.566 35.0239C147.564 35.0239 163.831 51.2535 163.831 71.1968C163.831 91.1401 147.564 107.377 127.566 107.377C127.29 107.377 127.02 107.37 126.743 107.363L94.0487 130.623C94.0695 131.054 94.0833 131.485 94.0833 131.909C94.0833 146.887 81.8706 159.068 66.8623 159.068C53.6878 159.068 42.6651 149.684 40.1741 137.264L3.30748 122.06C14.7245 162.323 51.8126 191.842 95.8339 191.842C148.947 191.842 192 148.891 192 95.9208C192 42.9438 148.947 0 95.8339 0ZM60.264 145.544L48.4525 140.674C50.5422 145.024 54.168 148.662 58.977 150.66C69.3699 154.982 81.3544 150.065 85.6859 139.689C87.7825 134.669 87.7963 129.13 85.7205 124.096C83.6447 119.062 79.7214 115.136 74.691 113.044C69.6882 110.971 64.3326 111.046 59.6274 112.818L71.8332 117.852C79.5 121.039 83.1257 129.82 79.929 137.467C76.7391 145.113 67.9307 148.731 60.264 145.544ZM151.732 71.1975C151.732 57.9088 140.889 47.0891 127.569 47.0891C114.242 47.0891 103.4 57.9088 103.4 71.1975C103.4 84.4862 114.242 95.2991 127.569 95.2991C140.889 95.2991 151.732 84.4862 151.732 71.1975ZM109.454 71.1564C109.454 61.1574 117.584 53.0529 127.604 53.0529C137.63 53.0529 145.76 61.1574 145.76 71.1564C145.76 81.1555 137.63 89.26 127.604 89.26C117.584 89.26 109.454 81.1555 109.454 71.1564Z" fill="white"/>
</g>
</g>
</g>
<defs>
<clipPath id="clip0_1_2">
<rect width="192" height="192" fill="white"/>
</clipPath>
<clipPath id="clip1_1_2">
<rect width="192" height="192" fill="white"/>
</clipPath>
</defs>
</svg>
