<svg width="192" height="192" viewBox="0 0 192 192" fill="none" xmlns="http://www.w3.org/2000/svg">
<g clip-path="url(#clip0_0_3)">
<path fill-rule="evenodd" clip-rule="evenodd" d="M80.092 72.444V65.632C77.7279 65.2972 75.3437 65.1234 72.956 65.112C43.756 65.112 20 88.872 20 118.072C20 135.984 28.952 151.84 42.608 161.428C33.4641 151.649 28.3806 138.76 28.388 125.372C28.388 96.588 51.468 73.116 80.092 72.444Z" fill="#00F2EA"/>
<path fill-rule="evenodd" clip-rule="evenodd" d="M81.34 149.556C94.368 149.556 104.996 139.192 105.48 126.276L105.524 10.976H126.588C126.138 8.56861 125.911 6.12502 125.908 3.67599H97.14L97.092 118.98C96.612 131.892 85.98 142.252 72.956 142.252C69.0458 142.254 65.1944 141.301 61.736 139.476C63.9691 142.592 66.9118 145.131 70.3207 146.883C73.7296 148.636 77.5068 149.552 81.34 149.556ZM165.936 50.112V43.704C158.195 43.7112 150.62 41.4591 144.14 37.224C149.821 43.7652 157.466 48.2874 165.936 50.112Z" fill="#00F2EA"/>
<path fill-rule="evenodd" clip-rule="evenodd" d="M144.14 37.22C137.79 29.9538 134.292 20.6301 134.296 10.98H126.588C127.586 16.3138 129.656 21.3895 132.673 25.8999C135.69 30.4102 139.591 34.2613 144.14 37.22ZM72.956 93.884C66.5443 93.8914 60.3973 96.4417 55.8635 100.975C51.3297 105.509 48.7794 111.656 48.772 118.068C48.7763 122.479 49.9858 126.804 52.27 130.577C54.5541 134.35 57.826 137.427 61.732 139.476C58.7579 135.375 57.1563 130.438 57.156 125.372C57.1624 118.96 59.7122 112.812 64.2461 108.277C68.78 103.742 74.9276 101.191 81.34 101.184C83.832 101.184 86.22 101.596 88.476 102.304V72.932C86.1119 72.5971 83.7277 72.4234 81.34 72.412C80.92 72.412 80.508 72.436 80.092 72.444V95.004C77.7843 94.2694 75.3778 93.8917 72.956 93.884Z" fill="#FF004F"/>
<path fill-rule="evenodd" clip-rule="evenodd" d="M165.936 50.112V72.472C151.016 72.472 137.196 67.7 125.908 59.6V118.068C125.908 147.268 102.156 171.024 72.956 171.024C61.672 171.024 51.208 167.464 42.608 161.424C47.5524 166.756 53.5448 171.009 60.2097 173.918C66.8746 176.826 74.0683 178.326 81.34 178.324C110.54 178.324 134.296 154.568 134.296 125.372V66.904C145.957 75.2892 159.961 79.7926 174.324 79.776V51C171.444 51 168.644 50.692 165.936 50.112Z" fill="#FF004F"/>
<path fill-rule="evenodd" clip-rule="evenodd" d="M125.908 118.068V59.6C137.569 67.9862 151.573 72.4896 165.936 72.472V50.112C157.467 48.2855 149.819 43.7619 144.14 37.22C139.591 34.2613 135.69 30.4102 132.673 25.8999C129.656 21.3895 127.586 16.3138 126.588 10.98H105.524L105.48 126.28C104.996 139.192 94.368 149.556 81.34 149.556C77.5069 149.552 73.7298 148.636 70.3209 146.883C66.9121 145.13 63.9693 142.591 61.736 139.476C57.8292 137.428 54.5566 134.351 52.2717 130.578C49.9868 126.805 48.7766 122.479 48.772 118.068C48.7794 111.656 51.3297 105.509 55.8635 100.975C60.3973 96.4417 66.5443 93.8914 72.956 93.884C75.444 93.884 77.832 94.292 80.092 95.004V72.444C51.468 73.116 28.388 96.588 28.388 125.372C28.388 139.292 33.796 151.964 42.608 161.428C51.4914 167.682 62.0922 171.034 72.956 171.024C102.156 171.024 125.908 147.268 125.908 118.068Z" fill="white"/>
</g>
<defs>
<clipPath id="clip0_0_3">
<rect width="192" height="192" fill="white"/>
</clipPath>
</defs>
</svg>
